<?xml version="1.0" standalone="no"?>
<!DOCTYPE svg PUBLIC "-//W3C//DTD SVG 20010904//EN"
 "http://www.w3.org/TR/2001/REC-SVG-20010904/DTD/svg10.dtd">
<svg version="1.0" xmlns="http://www.w3.org/2000/svg"
 width="512.000000pt" height="512.000000pt" viewBox="0 0 512.000000 512.000000"
 preserveAspectRatio="xMidYMid meet">

<g transform="translate(0.000000,512.000000) scale(0.100000,-0.100000)"
fill="#000000" stroke="none">
<path d="M1610 4919 c-105 -21 -211 -103 -259 -201 -48 -100 -54 -307 -11
-420 26 -71 105 -160 170 -193 172 -87 382 -36 483 118 58 88 69 139 65 290
-3 123 -5 136 -34 197 -54 114 -148 187 -269 209 -66 12 -82 12 -145 0z m158
-165 c49 -20 90 -60 113 -109 27 -59 27 -250 0 -303 -72 -140 -261 -165 -358
-48 -41 50 -53 97 -53 207 1 140 32 202 125 245 58 28 120 31 173 8z"/>
<path d="M3350 4916 c-115 -25 -202 -96 -254 -206 -29 -61 -31 -74 -34 -197
-4 -151 7 -202 65 -290 101 -153 312 -205 484 -117 64 32 143 121 169 192 27
70 37 211 22 306 -26 165 -141 285 -301 316 -65 12 -81 12 -151 -4z m170 -167
c60 -27 79 -45 106 -104 20 -41 24 -66 24 -144 0 -110 -12 -157 -53 -207 -97
-117 -286 -92 -358 48 -25 49 -27 239 -3 296 46 112 173 161 284 111z"/>
<path d="M743 4600 c-112 -16 -221 -99 -276 -209 -29 -60 -32 -73 -35 -192 -4
-109 -1 -138 17 -196 85 -274 424 -353 626 -146 80 82 111 191 102 356 -6 117
-23 172 -72 240 -81 110 -221 166 -362 147z m176 -187 c32 -20 53 -44 73 -82
25 -48 28 -63 28 -157 0 -115 -12 -159 -58 -207 -48 -51 -97 -70 -172 -65 -78
4 -124 30 -168 93 -25 37 -27 49 -30 155 -4 127 5 173 44 220 69 82 190 100
283 43z"/>
<path d="M2494 4599 c-116 -15 -233 -101 -282 -208 -54 -117 -52 -337 4 -445
37 -72 106 -140 178 -173 53 -24 73 -28 156 -28 82 0 103 4 152 27 101 47 172
128 205 233 18 57 17 278 -2 341 -50 170 -226 278 -411 253z m123 -164 c71
-21 127 -85 144 -163 25 -124 -2 -262 -63 -319 -75 -70 -221 -70 -296 0 -45
42 -65 96 -70 193 -8 159 42 255 149 289 58 18 75 18 136 0z"/>
<path d="M4238 4600 c-150 -25 -266 -132 -304 -280 -25 -99 -16 -277 19 -353
36 -78 70 -121 130 -160 69 -45 138 -67 212 -67 168 0 318 115 360 276 19 73
19 242 1 312 -49 184 -232 302 -418 272z m165 -182 c22 -13 55 -42 72 -66 29
-42 30 -49 33 -163 3 -113 2 -124 -22 -173 -37 -75 -90 -109 -177 -114 -74 -5
-123 14 -171 65 -45 48 -58 92 -58 205 0 87 4 111 24 154 52 112 187 153 299
92z"/>
<path d="M310 3609 c-101 -20 -202 -93 -255 -184 -53 -90 -55 -109 -55 -651 0
-554 2 -571 63 -641 59 -67 170 -100 243 -73 15 6 28 9 31 7 2 -2 12 -363 23
-803 11 -439 23 -822 26 -850 7 -73 56 -150 118 -188 81 -50 202 -47 280 7 25
18 31 18 50 7 60 -39 83 -45 162 -45 72 0 86 3 130 30 62 39 111 116 118 189
3 28 13 337 21 686 8 349 18 710 21 801 l6 167 36 -10 c109 -30 226 31 282
147 20 40 28 1009 10 1094 -19 85 -46 138 -100 195 -88 93 -182 126 -362 126
l-98 0 -98 -89 c-53 -48 -106 -98 -116 -110 -11 -11 -24 -21 -30 -21 -6 0 -54
43 -106 96 -52 52 -107 102 -122 110 -30 16 -202 18 -278 3z m340 -274 c169
-167 156 -167 333 0 l132 125 79 0 c43 0 96 -5 117 -11 50 -16 105 -61 132
-112 22 -42 22 -47 25 -553 l3 -512 -27 -31 c-40 -48 -102 -41 -132 16 -8 15
-12 115 -12 332 l0 311 -80 0 -80 0 0 -225 0 -225 -325 0 -325 0 0 225 0 225
-80 0 -79 0 -3 -321 -3 -321 -28 -24 c-37 -32 -77 -31 -111 2 l-26 27 0 501
c0 332 4 515 11 541 13 49 89 126 139 142 19 6 75 11 125 12 l89 1 126 -125z
m484 -1167 c-2 -68 -14 -487 -25 -931 -11 -444 -24 -818 -28 -830 -14 -35 -47
-59 -84 -60 -48 -1 -84 25 -96 70 -7 25 -11 317 -11 851 l0 812 -75 0 -75 0 0
-812 c0 -534 -4 -826 -11 -851 -24 -88 -147 -95 -180 -10 -4 12 -17 384 -28
825 -11 442 -23 860 -26 931 l-5 127 325 0 325 0 -6 -122z"/>
<path d="M2052 3609 c-107 -21 -221 -112 -270 -216 l-27 -58 0 -560 c0 -505 2
-563 17 -591 23 -41 73 -89 117 -111 38 -19 138 -24 179 -10 22 8 22 7 22 -80
0 -48 9 -427 20 -841 19 -715 21 -756 41 -800 60 -138 220 -193 353 -123 l56
30 56 -30 c71 -37 164 -41 231 -8 55 27 116 96 133 151 9 31 19 268 34 873 19
723 23 829 36 825 8 -2 44 -4 80 -4 76 0 130 24 178 79 65 73 63 54 60 654
l-3 546 -27 58 c-15 32 -50 80 -80 110 -91 89 -173 117 -348 117 -91 0 -99 -2
-136 -29 -21 -16 -57 -48 -79 -71 -22 -23 -62 -60 -88 -82 l-48 -41 -87 85
c-149 145 -136 138 -265 137 -62 -1 -131 -5 -155 -10z m343 -274 c175 -164
158 -164 334 0 l133 125 88 0 c77 0 95 -4 141 -28 34 -17 65 -44 84 -71 l30
-43 3 -533 3 -533 -27 -21 c-34 -27 -74 -27 -108 0 l-26 20 0 325 0 324 -80 0
-80 0 0 -225 0 -225 -330 0 -330 0 0 225 0 225 -80 0 -80 0 0 -320 0 -321 -25
-24 c-30 -31 -73 -32 -109 -4 l-27 21 3 533 3 533 30 43 c19 27 50 54 84 71
47 25 64 28 143 28 l91 0 132 -125z m485 -1082 c2 -192 -43 -1807 -51 -1836
-19 -71 -106 -95 -158 -43 l-26 26 -3 840 -2 840 -80 0 -80 0 0 -830 c0 -586
-3 -836 -11 -853 -28 -61 -127 -67 -164 -10 -17 25 -20 100 -41 898 -13 478
-23 900 -24 938 l0 67 320 0 320 0 0 -37z"/>
<path d="M3800 3609 c-104 -21 -230 -118 -267 -206 -41 -98 -43 -121 -43 -619
0 -285 4 -503 10 -535 26 -134 156 -222 286 -192 l42 10 6 -101 c3 -56 13
-407 21 -781 8 -374 17 -708 20 -743 11 -154 110 -252 255 -252 62 0 114 17
161 51 13 10 22 8 45 -8 104 -72 265 -51 344 45 58 71 57 58 80 957 12 456 22
831 24 832 2 2 17 -2 35 -8 73 -26 184 11 240 78 61 73 62 86 59 659 -3 381
-7 529 -16 556 -34 99 -132 201 -232 239 -58 22 -252 38 -305 25 -14 -4 -78
-54 -141 -113 -133 -122 -101 -125 -252 22 l-92 90 -118 2 c-64 1 -137 -3
-162 -8z m341 -274 c116 -114 130 -125 163 -125 33 0 50 12 170 125 l134 125
77 0 c43 0 96 -6 119 -12 55 -17 131 -91 145 -143 7 -26 11 -209 11 -541 l0
-501 -25 -27 c-27 -29 -77 -35 -107 -12 -34 25 -38 64 -38 372 l0 304 -80 0
-80 0 0 -225 0 -225 -325 0 -325 0 0 225 0 225 -80 0 -80 0 0 -311 c0 -316 -2
-338 -39 -366 -41 -31 -113 -2 -126 50 -3 12 -5 247 -3 522 3 497 3 500 25
542 26 47 77 92 125 110 18 6 73 12 122 12 l89 1 128 -125z m485 -1202 c-4
-87 -13 -441 -21 -788 -22 -921 -22 -930 -51 -964 -27 -33 -65 -43 -105 -29
-62 21 -59 -24 -59 893 l0 835 -80 0 -80 0 0 -820 c0 -914 3 -877 -65 -906
-33 -14 -40 -13 -73 3 -20 10 -42 29 -48 43 -11 23 -55 1480 -54 1788 l0 102
321 0 321 0 -6 -157z"/>
</g>
</svg>
