<?xml version="1.0" standalone="no"?>
<!DOCTYPE svg PUBLIC "-//W3C//DTD SVG 20010904//EN"
 "http://www.w3.org/TR/2001/REC-SVG-20010904/DTD/svg10.dtd">
<svg version="1.0" xmlns="http://www.w3.org/2000/svg"
 width="512.000000pt" height="512.000000pt" viewBox="0 0 512.000000 512.000000"
 preserveAspectRatio="xMidYMid meet">

<g transform="translate(0.000000,512.000000) scale(0.100000,-0.100000)"
fill="#000000" stroke="none">
<path d="M2165 5106 c-37 -17 -70 -52 -84 -89 -6 -16 -11 -103 -11 -202 l0
-173 -35 -6 c-113 -22 -379 -128 -515 -206 l-85 -48 -120 118 c-126 124 -163
150 -216 150 -65 0 -111 -36 -356 -282 -244 -245 -273 -282 -273 -348 0 -51
27 -90 150 -215 l118 -120 -40 -70 c-80 -137 -192 -417 -214 -530 l-6 -34
-188 -3 c-206 -3 -215 -6 -264 -72 -20 -27 -21 -39 -21 -416 0 -377 1 -389 21
-416 49 -66 58 -69 264 -72 l188 -3 6 -34 c22 -113 134 -393 214 -530 l40 -70
-118 -120 c-124 -126 -150 -163 -150 -216 0 -65 36 -111 282 -356 245 -244
282 -273 348 -273 52 0 90 27 215 151 l120 118 70 -41 c133 -78 356 -169 512
-208 l52 -13 3 -188 c3 -205 6 -214 72 -263 27 -20 39 -21 416 -21 377 0 389
1 416 21 66 49 69 58 72 263 l3 187 87 23 c154 42 343 122 488 204 l61 35 114
-115 c156 -156 202 -177 294 -133 52 25 161 137 171 174 10 41 -23 80 -70 84
-33 3 -43 -3 -107 -64 l-70 -68 -127 127 c-109 108 -134 128 -175 139 l-47 12
-150 -77 c-166 -86 -278 -132 -429 -176 -182 -52 -190 -67 -191 -318 l0 -173
-340 0 -340 0 0 173 c-1 251 -9 266 -191 318 -150 44 -263 90 -428 175 -201
104 -191 106 -369 -69 l-132 -131 -243 242 -242 242 127 127 c109 110 129 135
140 176 l12 47 -77 150 c-86 166 -132 278 -176 429 -52 182 -67 190 -318 191
l-173 0 0 340 0 340 173 0 c251 1 266 9 318 191 44 151 90 263 176 429 l77
150 -12 47 c-11 41 -31 66 -140 176 l-127 127 243 242 242 243 127 -127 c110
-109 135 -129 176 -140 l47 -12 150 77 c166 86 278 132 429 176 182 52 190 67
191 319 l0 172 340 0 340 0 0 -172 c1 -252 9 -267 191 -319 151 -44 263 -90
429 -176 l150 -77 47 12 c41 11 66 31 176 140 l127 127 242 -242 242 -243
-131 -132 c-175 -178 -173 -168 -69 -369 85 -165 131 -278 175 -428 52 -182
67 -190 319 -191 l172 0 0 -340 0 -340 -172 0 c-252 -1 -267 -9 -319 -191 -44
-150 -90 -263 -175 -428 -104 -201 -106 -191 69 -369 l131 -132 -61 -63 c-34
-34 -66 -73 -71 -87 -12 -31 7 -84 33 -94 42 -16 66 -5 134 60 104 97 132 172
95 247 -9 18 -69 86 -135 152 l-118 120 41 70 c78 133 169 356 208 512 l13 52
188 3 c205 3 214 6 263 72 20 27 21 39 21 416 0 377 -1 389 -21 416 -49 66
-58 69 -263 72 l-188 3 -13 52 c-39 156 -130 379 -208 512 l-41 70 118 120
c66 66 126 134 135 152 20 40 20 83 0 131 -20 50 -484 515 -540 542 -91 44
-138 23 -293 -133 l-114 -115 -61 35 c-145 82 -334 162 -488 204 l-87 23 -3
187 c-3 205 -6 214 -72 263 -26 20 -41 21 -404 23 -299 2 -383 0 -407 -11z"/>
<path d="M2277 4140 c-187 -34 -393 -112 -552 -210 -275 -168 -534 -468 -642
-742 -31 -80 -26 -114 20 -136 56 -27 74 -9 152 144 84 166 141 249 255 368
225 234 534 393 847 436 128 18 401 8 513 -18 444 -104 813 -398 1004 -802 52
-110 86 -211 112 -331 27 -121 27 -457 0 -579 -63 -286 -196 -531 -401 -735
-204 -205 -449 -338 -735 -401 -122 -27 -458 -27 -580 0 -286 63 -530 196
-735 401 -202 202 -327 426 -398 715 -18 73 -21 119 -22 329 -1 242 -1 244
-24 262 -31 26 -67 24 -95 -5 -32 -31 -40 -123 -33 -344 13 -414 166 -763 466
-1063 230 -230 484 -369 803 -440 145 -33 435 -38 593 -11 336 57 621 206 865
451 233 233 370 484 442 808 19 85 22 129 22 323 1 196 -2 238 -21 323 -74
326 -211 576 -442 808 -230 230 -483 369 -803 440 -139 31 -462 36 -611 9z"/>
<path d="M3122 3329 c-97 -19 -129 -47 -465 -411 l-321 -348 -35 32 c-20 18
-70 66 -112 105 -98 93 -148 116 -254 117 -61 0 -91 -5 -127 -21 -66 -30 -133
-95 -165 -162 -23 -47 -28 -69 -28 -136 0 -133 14 -153 300 -430 258 -249 294
-276 396 -290 57 -8 159 16 211 50 21 14 238 242 483 508 504 545 500 540 499
672 -1 157 -90 271 -241 310 -63 16 -77 17 -141 4z m153 -168 c64 -37 97 -121
76 -192 -14 -48 -5 -37 -495 -568 -233 -252 -417 -443 -433 -449 -52 -21 -80
-24 -122 -12 -35 9 -81 49 -276 236 -280 270 -296 298 -242 404 25 50 72 86
124 96 69 13 106 -9 256 -152 120 -113 147 -134 173 -134 18 0 41 8 52 18 11
9 160 170 332 357 343 375 370 401 414 415 40 12 103 4 141 -19z"/>
</g>
</svg>
