<?xml version="1.0" standalone="no"?>
<!DOCTYPE svg PUBLIC "-//W3C//DTD SVG 20010904//EN"
 "http://www.w3.org/TR/2001/REC-SVG-20010904/DTD/svg10.dtd">
<svg version="1.0" xmlns="http://www.w3.org/2000/svg"
 width="512.000000pt" height="512.000000pt" viewBox="0 0 512.000000 512.000000"
 preserveAspectRatio="xMidYMid meet">

<g transform="translate(0.000000,512.000000) scale(0.100000,-0.100000)"
fill="#000000" stroke="none">
<path d="M1632 4689 c-51 -26 -92 -81 -99 -136 -5 -37 -7 -39 -55 -51 -61 -14
-107 -47 -133 -96 l-20 -36 -222 0 c-210 0 -224 -1 -243 -20 -20 -20 -20 -33
-20 -1685 l0 -1666 25 -24 24 -25 743 0 743 0 45 -73 c115 -186 350 -362 585
-437 137 -44 359 -37 543 16 280 81 490 247 617 487 229 433 106 982 -287
1277 -140 106 -321 180 -480 197 l-58 6 0 952 c0 916 -1 953 -19 969 -30 27
-124 37 -301 30 l-165 -6 -20 38 c-26 49 -86 91 -141 100 -41 6 -44 8 -44 38
0 49 -50 119 -102 145 -43 20 -55 21 -459 21 -403 0 -415 -1 -457 -21z m866
-131 c7 -7 12 -20 12 -30 0 -17 -22 -18 -420 -18 -398 0 -420 1 -420 18 0 41
8 42 420 42 295 0 399 -3 408 -12z m208 -213 l25 -25 -3 -181 c-3 -176 -4
-181 -27 -200 -22 -18 -47 -19 -611 -19 -564 0 -589 1 -611 19 -24 19 -24 22
-24 206 0 184 0 187 24 206 22 18 47 19 613 19 l589 0 25 -25z m-1396 -200 l0
-85 -60 0 c-47 0 -64 -4 -80 -20 -20 -20 -20 -33 -20 -1378 l0 -1359 21 -19
c20 -18 48 -19 562 -24 l540 -5 18 -75 c10 -41 18 -78 19 -82 0 -5 -299 -8
-665 -8 l-665 0 0 1570 0 1570 165 0 165 0 0 -85z m1890 -819 l0 -903 -53 -6
c-29 -4 -67 -10 -85 -13 l-32 -6 0 815 0 816 -22 15 c-14 10 -44 16 -80 16
l-58 0 0 85 0 85 165 0 165 0 0 -904z m-1849 550 c19 -31 42 -50 80 -69 l53
-27 605 0 606 0 53 25 c39 18 59 36 80 69 15 26 35 46 45 46 16 0 17 -44 17
-784 l0 -783 -62 -31 c-266 -132 -461 -373 -533 -656 -13 -50 -26 -130 -30
-178 l-7 -88 -484 0 -484 0 0 1260 c0 1193 1 1260 18 1260 9 0 29 -20 43 -44z
m2136 -1616 c287 -67 514 -282 606 -575 106 -336 21 -669 -231 -907 -333 -314
-873 -304 -1201 24 -109 108 -181 230 -227 385 -23 75 -27 107 -28 218 0 162
24 267 93 410 178 364 572 542 988 445z"/>
<path d="M1529 3392 c-28 -23 -30 -73 -4 -102 18 -20 30 -20 566 -20 l548 0
21 27 c25 32 20 69 -12 96 -19 16 -60 17 -558 17 -508 0 -539 -1 -561 -18z"/>
<path d="M1525 3000 c-26 -29 -24 -79 4 -102 22 -17 53 -18 561 -18 498 0 539
1 558 18 32 26 37 63 12 95 l-21 27 -548 0 c-536 0 -548 0 -566 -20z"/>
<path d="M1526 2614 c-38 -37 -27 -96 20 -114 15 -6 240 -10 544 -10 304 0
529 4 544 10 47 18 58 77 20 114 -14 14 -79 16 -564 16 -485 0 -550 -2 -564
-16z"/>
<path d="M1542 2240 c-26 -11 -45 -54 -37 -81 16 -49 12 -49 400 -49 l364 0
15 22 c21 30 20 61 -3 89 l-19 24 -349 2 c-197 1 -358 -2 -371 -7z"/>
<path d="M1529 1842 c-28 -23 -30 -73 -4 -102 17 -19 30 -20 276 -20 255 0
258 0 273 22 22 31 20 74 -4 98 -19 19 -33 20 -269 20 -227 0 -251 -2 -272
-18z"/>
<path d="M3740 1909 c-14 -5 -152 -137 -307 -291 l-282 -282 -158 155 c-169
167 -200 186 -275 176 -48 -6 -106 -50 -130 -98 -22 -41 -23 -110 -4 -147 18
-32 462 -475 493 -491 34 -17 110 -13 151 8 40 21 711 690 732 730 18 34 16
101 -5 144 -37 78 -141 125 -215 96z m78 -141 c7 -7 12 -19 12 -27 0 -24 -661
-681 -685 -681 -25 0 -435 407 -435 432 0 10 9 22 21 29 19 10 38 -6 203 -170
153 -153 186 -181 211 -181 25 0 73 43 335 305 168 168 310 305 316 305 5 0
15 -5 22 -12z"/>
</g>
</svg>
