<?xml version="1.0" standalone="no"?>
<!DOCTYPE svg PUBLIC "-//W3C//DTD SVG 20010904//EN"
 "http://www.w3.org/TR/2001/REC-SVG-20010904/DTD/svg10.dtd">
<svg version="1.0" xmlns="http://www.w3.org/2000/svg"
 width="512.000000pt" height="512.000000pt" viewBox="0 0 512.000000 512.000000"
 preserveAspectRatio="xMidYMid meet">

<g transform="translate(0.000000,512.000000) scale(0.100000,-0.100000)"
fill="#000000" stroke="none">
<path d="M440 5106 c-146 -40 -250 -149 -280 -294 -7 -31 -9 -813 -8 -2282 3
-2212 3 -2235 23 -2282 45 -105 118 -178 223 -223 46 -20 71 -20 1746 -23
1879 -3 1763 -6 1869 62 63 40 107 93 145 173 l27 58 3 476 c3 471 3 475 -18
502 -28 35 -77 37 -108 4 -21 -22 -21 -28 -24 -493 l-3 -471 -30 -49 c-19 -30
-49 -60 -79 -79 l-49 -30 -636 -2 -636 -3 121 53 c66 29 134 63 150 75 16 11
486 479 1045 1039 971 972 1018 1020 1034 1072 22 66 16 141 -16 202 -30 60
-202 229 -262 258 -40 19 -60 22 -120 19 -40 -2 -88 -12 -107 -21 -20 -10
-470 -453 -1065 -1050 l-1031 -1032 -129 -307 -130 -307 -816 2 -816 2 -49 30
c-30 19 -60 49 -79 79 l-30 49 -3 1909 -2 1908 1870 0 1870 0 0 -675 0 -676
25 -24 c31 -32 69 -32 101 0 l24 25 -2 1022 -3 1023 -31 65 c-39 82 -75 124
-141 167 -105 67 8 63 -1848 62 -1303 0 -1690 -3 -1725 -13z m3486 -171 c30
-19 60 -49 79 -79 l30 -49 3 -264 3 -263 -1870 0 -1871 0 0 248 c1 265 5 292
54 356 14 19 49 46 78 60 l52 26 1696 -2 1697 -3 49 -30z m785 -2312 c144
-141 144 -163 1 -306 l-87 -87 -150 150 -150 151 96 94 c94 93 97 95 144 95
47 0 49 -2 146 -97z m-249 -555 l-52 -53 -150 150 -150 150 52 52 53 53 150
-150 150 -150 -53 -52z m-874 -875 l-718 -718 -150 150 -150 150 717 717 718
718 150 -150 150 -150 -717 -717z m-848 -814 c0 -3 -32 -20 -72 -38 l-72 -32
-93 93 c-104 103 -102 95 -57 192 l26 58 134 -133 c74 -74 134 -136 134 -140z
m-301 -133 c-12 -12 -169 -74 -169 -67 0 5 12 35 26 67 14 33 30 70 36 83 9
25 9 25 61 -27 28 -28 49 -53 46 -56z"/>
<path d="M615 3540 c-23 -26 -23 -74 0 -100 18 -20 28 -20 1555 -20 1527 0
1537 0 1555 20 23 26 23 74 0 100 -18 20 -28 20 -1555 20 -1527 0 -1537 0
-1555 -20z"/>
<path d="M627 3019 c-46 -27 -41 -105 9 -128 18 -8 435 -11 1539 -11 l1514 0
27 23 c35 31 38 82 5 109 -22 17 -81 18 -1550 18 -1047 -1 -1532 -4 -1544 -11z"/>
<path d="M633 2488 c-48 -23 -51 -103 -4 -127 21 -12 3046 -16 3076 -5 8 4 22
19 30 34 19 36 4 83 -31 99 -34 15 -3039 15 -3071 -1z"/>
<path d="M653 1963 c-13 -2 -32 -16 -43 -31 -23 -29 -20 -64 7 -94 15 -17 80
-18 1089 -18 l1073 0 20 26 c36 46 22 93 -33 114 -27 10 -2062 13 -2113 3z"/>
<path d="M622 1413 c-12 -10 -24 -30 -28 -45 -5 -22 0 -34 24 -58 l31 -30 796
2 797 3 19 24 c25 30 24 62 -2 95 l-20 26 -799 0 c-745 0 -799 -1 -818 -17z"/>
<path d="M633 888 c-48 -23 -51 -103 -4 -127 13 -7 194 -11 546 -11 l526 0 24
25 c32 31 32 69 0 100 l-24 25 -523 -1 c-345 0 -530 -4 -545 -11z"/>
</g>
</svg>
